<mxfile host="65bd71144e">
    <diagram id="VmXnfk7Td9vwknXcLYPU" name="Page-1">
        <mxGraphModel dx="631" dy="513" grid="0" gridSize="10" guides="1" tooltips="1" connect="1" arrows="1" fold="1" page="1" pageScale="1" pageWidth="1200" pageHeight="1600" background="#330000" math="0" shadow="0">
            <root>
                <mxCell id="0"/>
                <mxCell id="1" parent="0"/>
                <mxCell id="28" value="" style="group;flipH=0;flipV=0;" parent="1" vertex="1" connectable="0">
                    <mxGeometry x="190" y="170" width="861.8" height="536" as="geometry"/>
                </mxCell>
                <mxCell id="6" value="" style="edgeStyle=none;html=1;strokeColor=#FFFFFF;" parent="28" source="4" target="5" edge="1">
                    <mxGeometry relative="1" as="geometry"/>
                </mxCell>
                <mxCell id="4" value="User" style="rounded=1;whiteSpace=wrap;html=1;arcSize=50;" parent="28" vertex="1">
                    <mxGeometry x="735.6829268292684" y="10.509803921568627" width="126.11707317073171" height="63.05882352941177" as="geometry"/>
                </mxCell>
                <mxCell id="8" value="" style="edgeStyle=none;shape=connector;rounded=1;html=1;strokeColor=#FFFFFF;align=center;verticalAlign=middle;fontFamily=Helvetica;fontSize=11;fontColor=default;labelBackgroundColor=default;endArrow=classic;" parent="28" source="5" target="7" edge="1">
                    <mxGeometry relative="1" as="geometry"/>
                </mxCell>
                <mxCell id="5" value="Edit Data" style="whiteSpace=wrap;html=1;rounded=1;arcSize=0;" parent="28" vertex="1">
                    <mxGeometry x="525.4878048780488" y="10.509803921568627" width="126.11707317073171" height="63.05882352941177" as="geometry"/>
                </mxCell>
                <mxCell id="10" value="" style="edgeStyle=none;shape=connector;rounded=1;html=1;strokeColor=#FFFFFF;align=center;verticalAlign=middle;fontFamily=Helvetica;fontSize=11;fontColor=default;labelBackgroundColor=default;endArrow=classic;" parent="28" source="7" target="9" edge="1">
                    <mxGeometry relative="1" as="geometry"/>
                </mxCell>
                <mxCell id="7" value="Sending Email to Admin" style="whiteSpace=wrap;html=1;rounded=1;arcSize=0;" parent="28" vertex="1">
                    <mxGeometry x="315.2926829268293" y="10.509803921568627" width="126.11707317073171" height="63.05882352941177" as="geometry"/>
                </mxCell>
                <mxCell id="12" value="" style="edgeStyle=none;shape=connector;rounded=1;html=1;strokeColor=#FFFFFF;align=center;verticalAlign=middle;fontFamily=Helvetica;fontSize=11;fontColor=default;labelBackgroundColor=default;endArrow=classic;" parent="28" source="9" target="11" edge="1">
                    <mxGeometry relative="1" as="geometry"/>
                </mxCell>
                <mxCell id="35" value="if accept" style="edgeLabel;html=1;align=center;verticalAlign=middle;resizable=0;points=[];fontFamily=Helvetica;fontSize=11;fontColor=default;labelBackgroundColor=default;" parent="12" vertex="1" connectable="0">
                    <mxGeometry x="-0.2651" relative="1" as="geometry">
                        <mxPoint as="offset"/>
                    </mxGeometry>
                </mxCell>
                <mxCell id="22" style="edgeStyle=none;shape=connector;rounded=1;html=1;exitX=0;exitY=0.5;exitDx=0;exitDy=0;strokeColor=#FFFFFF;align=center;verticalAlign=middle;fontFamily=Helvetica;fontSize=11;fontColor=default;labelBackgroundColor=default;endArrow=classic;entryX=0;entryY=0.5;entryDx=0;entryDy=0;" parent="28" source="9" target="20" edge="1">
                    <mxGeometry relative="1" as="geometry">
                        <mxPoint x="-49.921341463414635" y="42.30196078431373" as="targetPoint"/>
                        <Array as="points">
                            <mxPoint x="2.101951219512195" y="42.03921568627451"/>
                            <mxPoint y="357.33333333333337"/>
                        </Array>
                    </mxGeometry>
                </mxCell>
                <mxCell id="29" value="else" style="edgeLabel;html=1;align=center;verticalAlign=middle;resizable=0;points=[];fontFamily=Helvetica;fontSize=11;fontColor=default;labelBackgroundColor=default;" parent="22" vertex="1" connectable="0">
                    <mxGeometry x="-0.039" relative="1" as="geometry">
                        <mxPoint as="offset"/>
                    </mxGeometry>
                </mxCell>
                <mxCell id="9" value="admin accept" style="rhombus;whiteSpace=wrap;html=1;rounded=1;arcSize=0;" parent="28" vertex="1">
                    <mxGeometry x="105.09756097560977" width="105.09756097560977" height="84.07843137254902" as="geometry"/>
                </mxCell>
                <mxCell id="21" value="" style="edgeStyle=none;shape=connector;rounded=1;html=1;strokeColor=#FFFFFF;align=center;verticalAlign=middle;fontFamily=Helvetica;fontSize=11;fontColor=default;labelBackgroundColor=default;endArrow=classic;" parent="28" source="11" target="20" edge="1">
                    <mxGeometry relative="1" as="geometry"/>
                </mxCell>
                <mxCell id="11" value="update data" style="whiteSpace=wrap;html=1;rounded=1;arcSize=0;" parent="28" vertex="1">
                    <mxGeometry x="94.58780487804879" y="178.66666666666669" width="126.11707317073171" height="63.05882352941177" as="geometry"/>
                </mxCell>
                <mxCell id="17" style="edgeStyle=none;shape=connector;rounded=1;html=1;exitX=1;exitY=0.5;exitDx=0;exitDy=0;entryX=0;entryY=0.5;entryDx=0;entryDy=0;strokeColor=#FFFFFF;align=center;verticalAlign=middle;fontFamily=Helvetica;fontSize=11;fontColor=default;labelBackgroundColor=default;endArrow=classic;entryPerimeter=0;" parent="28" source="11" target="16" edge="1">
                    <mxGeometry relative="1" as="geometry"/>
                </mxCell>
                <mxCell id="19" value="" style="edgeStyle=none;shape=connector;rounded=1;html=1;strokeColor=#FFFFFF;align=center;verticalAlign=middle;fontFamily=Helvetica;fontSize=11;fontColor=default;labelBackgroundColor=default;endArrow=classic;" parent="28" source="16" target="5" edge="1">
                    <mxGeometry relative="1" as="geometry"/>
                </mxCell>
                <mxCell id="16" value="Data base" style="shape=cylinder3;whiteSpace=wrap;html=1;boundedLbl=1;backgroundOutline=1;size=15;fontFamily=Helvetica;fontSize=11;labelBackgroundColor=default;" parent="28" vertex="1">
                    <mxGeometry x="557.0170731707317" y="168.15686274509804" width="63.05853658536586" height="84.07843137254902" as="geometry"/>
                </mxCell>
                <mxCell id="25" value="" style="edgeStyle=none;shape=connector;rounded=1;html=1;strokeColor=#FFFFFF;align=center;verticalAlign=middle;fontFamily=Helvetica;fontSize=11;fontColor=default;labelBackgroundColor=default;endArrow=classic;" parent="28" source="20" target="24" edge="1">
                    <mxGeometry relative="1" as="geometry"/>
                </mxCell>
                <mxCell id="27" value="" style="edgeStyle=none;shape=connector;rounded=1;html=1;strokeColor=#FFFFFF;align=center;verticalAlign=middle;fontFamily=Helvetica;fontSize=11;fontColor=default;labelBackgroundColor=default;endArrow=classic;" parent="28" source="20" target="26" edge="1">
                    <mxGeometry relative="1" as="geometry"/>
                </mxCell>
                <mxCell id="20" value="push notification" style="whiteSpace=wrap;html=1;rounded=1;arcSize=0;" parent="28" vertex="1">
                    <mxGeometry x="94.58780487804879" y="325.80392156862746" width="126.11707317073171" height="63.05882352941177" as="geometry"/>
                </mxCell>
                <mxCell id="24" value="send email to user" style="whiteSpace=wrap;html=1;rounded=1;arcSize=0;" parent="28" vertex="1">
                    <mxGeometry x="304.7829268292683" y="325.80392156862746" width="126.11707317073171" height="63.05882352941177" as="geometry"/>
                </mxCell>
                <mxCell id="26" value="Display data" style="whiteSpace=wrap;html=1;rounded=1;arcSize=50;" parent="28" vertex="1">
                    <mxGeometry x="94.58780487804879" y="472.94117647058823" width="126.11707317073171" height="63.05882352941177" as="geometry"/>
                </mxCell>
            </root>
        </mxGraphModel>
    </diagram>
</mxfile>